<?xml version="1.0" standalone="no"?><!DOCTYPE svg PUBLIC "-//W3C//DTD SVG 1.1//EN" "http://www.w3.org/Graphics/SVG/1.1/DTD/svg11.dtd"><svg t="1528201558196" class="icon" style="" viewBox="0 0 1024 1024" version="1.1" xmlns="http://www.w3.org/2000/svg" p-id="2538" xmlns:xlink="http://www.w3.org/1999/xlink" width="200" height="200"><defs><style type="text/css"></style></defs><path d="M389.9 708.6c-6-2.5-88.3-43.5-123-70.3-131-95.8-184.6-210.9-184.6-210.9s26.4 68.5 52.7 105.4c26.3 36.9 66.8 81.9 114.2 123 47.4 41.1 105.4 70.3 105.4 70.3s-90.2 14.2-158.2-17.6c-71.7-33.6-137.8-121-158-202C12.3 402.3 12 295.6 12 295.6s-1-2.1 8.8 0c83.8 20.7 207.3 66.9 281.2 123 73.9 56.1 86.7 144.8 87.9 184.5 1.1 39.8 0 105.5 0 105.5m622.1-533s-0.5 165.8-41 327.8c-31.5 126-134.2 261.8-245.9 314.2-105.6 49.5-245.9 27.3-245.9 27.3s90.2-45.4 163.9-109.3 136.7-133.9 177.6-191.2c40.9-57.4 82-163.9 82-163.9s-83.3 178.9-286.9 327.8C561.8 750 434 813.7 424.6 817.6c0 0-1.8-102.2 0-163.9 1.8-61.8 21.7-199.6 136.6-286.8 114.9-87.3 306.9-159 437.1-191.2 15.2-3.4 13.7-0.1 13.7-0.1" fill="#51b882" p-id="2539"></path></svg>