<?xml version="1.0" encoding="UTF-8"?>
<svg width="995px" height="913px" viewBox="0 0 995 913" version="1.1" xmlns="http://www.w3.org/2000/svg" xmlns:xlink="http://www.w3.org/1999/xlink">
    <!-- Generator: Sketch 49.3 (51167) - http://www.bohemiancoding.com/sketch -->
    <title>about-position-2</title>
    <desc>Created with Sketch.</desc>
    <defs></defs>
    <g id="about-position-2" stroke="none" stroke-width="1" fill="none" fill-rule="evenodd">
        <g id="气候" transform="translate(0.000000, 119.000000)" fill="#51B882" fill-rule="nonzero">
            <path d="M378.9,534.6 C372.9,532.1 290.6,491.1 255.9,464.3 C124.9,368.5 71.3,253.4 71.3,253.4 C71.3,253.4 97.7,321.9 124,358.8 C150.3,395.7 190.8,440.7 238.2,481.8 C285.6,522.9 343.6,552.1 343.6,552.1 C343.6,552.1 253.4,566.3 185.4,534.5 C113.7,500.9 47.6,413.5 27.4,332.5 C1.3,228.3 1,121.6 1,121.6 C1,121.6 5.55111512e-16,119.5 9.8,121.6 C93.6,142.3 217.1,188.5 291,244.6 C364.9,300.7 377.7,389.4 378.9,429.1 C380,468.9 378.9,534.6 378.9,534.6 M1001,1.6 C1001,1.6 1000.5,167.4 960,329.4 C928.5,455.4 825.8,591.2 714.1,643.6 C608.5,693.1 468.2,670.9 468.2,670.9 C468.2,670.9 558.4,625.5 632.1,561.6 C705.8,497.7 768.8,427.7 809.7,370.4 C850.6,313 891.7,206.5 891.7,206.5 C891.7,206.5 808.4,385.4 604.8,534.3 C550.8,576 423,639.7 413.6,643.6 C413.6,643.6 411.8,541.4 413.6,479.7 C415.4,417.9 435.3,280.1 550.2,192.9 C665.1,105.6 857.1,33.9 987.3,1.7 C1002.5,-1.7 1001,1.6 1001,1.6" id="Shape"></path>
        </g>
    </g>
</svg>