<?xml version="1.0" encoding="UTF-8"?>
<svg width="995px" height="913px" viewBox="0 0 995 913" version="1.1" xmlns="http://www.w3.org/2000/svg" xmlns:xlink="http://www.w3.org/1999/xlink">
    <!-- Generator: Sketch 49.3 (51167) - http://www.bohemiancoding.com/sketch -->
    <title>about-position-1</title>
    <desc>Created with Sketch.</desc>
    <defs></defs>
    <g id="about-position-1" stroke="none" stroke-width="1" fill="none" fill-rule="evenodd">
        <g id="地理位置">
            <path d="M731.0336,420.5248 C642.455234,420.482436 570.654899,348.693558 570.5984,260.1152 C570.5984,171.872 642.7904,99.68 731.0336,99.68 C819.8144,99.68 892.0064,171.872 892.0064,260.1152 C892.0064,348.3328 819.8144,420.5248 731.0336,420.5248 Z M731.0336,0.5568 C586.0608,0.5568 467.4816,118.5728 467.4816,263.5456 C467.4816,374.7008 539.6736,499.0144 599.8336,583.8016 C647.9616,651.4112 695.5008,704.1216 719.5648,729.9008 C722.44953,732.80019 726.355159,734.454339 730.4448,734.5088 C734.534441,734.454339 738.44007,732.80019 741.3248,729.9008 C784.397588,683.87398 824.40253,635.069319 861.0816,583.8016 C921.2416,499.0144 993.4336,374.7008 993.4336,263.5456 C994.56,118.5984 875.9808,0.5568 731.0336,0.5568 Z" id="Shape" fill="#BE606B" fill-rule="nonzero"></path>
            <path d="M908.6208,586.6688 L944.1536,709.856 L824.9856,696.672 C849.274974,667.817374 872.401688,638.003726 894.3104,607.3024 C898.8928,600.416 904.0384,593.5552 908.6464,586.6688 L908.6208,586.6688 Z" id="Path" fill="#4A90E2"></path>
            <path d="M474.3424,658.2976 L77.312,614.752 L134.0416,419.3728 C137.4976,407.9296 147.8144,399.9168 159.8464,399.9168 L454.8864,399.9168 C468.844839,437.729468 485.901168,474.325225 505.8816,509.3312 L474.3936,658.2976 L474.3424,658.2976 Z" id="Path" fill="#4A90E2"></path>
            <path d="M421.0688,912.6848 L26.88,912.6848 C18.304,912.6848 10.8544,908.6656 5.6832,902.368 C0.39687831,895.743448 -1.1116879,886.866117 1.6896,878.8672 L55.5264,692.6784 L458.3168,736.7872 L421.0688,912.6592 L421.0688,912.6848 Z" id="Path" fill="#4A90E2"></path>
            <path d="M968.2176,792.3648 L992.8448,877.152 C995.877386,885.228767 994.754438,894.279404 989.83996,901.370149 C984.925482,908.460893 976.844924,912.689325 968.2176,912.6848 L502.9888,912.684804 L537.9328,745.3888 L968.2176,792.3648 Z" id="Path" fill="#4A90E2"></path>
        </g>
    </g>
</svg>